<svg width="2166" height="400" viewBox="0 0 2166 400" fill="none" xmlns="http://www.w3.org/2000/svg"><g clip-path="url(#a)"><path d="M8.15 176.166c3.12 4.895 5.996 9.668 9.178 14.257 57.396 83.036 134.129 139.147 231.666 166.193 19.581 5.445 39.467 9.056 59.661 11.443 26.372 3.181 52.806 3.854 79.241 2.508 33.531-1.713 66.636-6.669 99.311-14.318.183-.062.368 0 .673.183-2.141.918-4.221 1.898-6.364 2.815a289.854 289.854 0 0 1-6.486 2.693c-31.513 12.604-64.066 21.6-97.598 27.107-25.761 4.222-51.645 6.18-77.711 5.201-87.319-3.06-160.808-36.103-219.306-101.453-27.658-30.901-49.013-65.841-66.514-103.29-1.958-4.221-3.793-8.444-5.69-12.666-.061-.06-.061-.245-.061-.673ZM309.574 0c-5.386 4.467-10.648 9.117-15.237 14.38-7.343 8.505-12.482 18.05-14.135 29.249-1.468 9.912-.305 19.642 2.325 29.248 3.244 11.81 8.383 22.824 14.196 33.594 3.794 7.098 6.915 14.441 8.2 22.395 2.386 14.748-2.754 26.19-15.114 34.45-8.628 5.752-18.296 8.628-28.392 10.342a79.37 79.37 0 0 1-4.65.611c.367-.367.55-.55.733-.673 12.85-9.056 17.379-21.66 13.157-36.836a60.904 60.904 0 0 0-9.362-19.459c-7.649-10.708-14.135-22.028-17.501-34.878-5.629-21.784.245-40.263 16.338-55.683 11.136-10.708 24.476-17.806 38.733-23.375C302.353 2.02 305.901.857 309.574 0Z" fill="#fff"/><path d="M238.958 174.759c1.775-2.753 3.183-5.629 3.672-8.934.857-5.201-.489-9.851-3.304-14.134-2.509-3.916-5.691-7.16-9.485-9.791-5.384-3.794-10.463-7.893-14.624-13.034-5.568-6.792-9.117-14.379-8.872-23.313.122-4.406 1.162-8.689 2.936-12.727 5.079-11.749 13.829-20.377 24.048-27.842-.795 1.407-1.591 2.754-2.386 4.16-9.056 15.727-7.771 30.657 3.304 44.915 4.161 5.384 8.995 10.218 14.013 14.807 3.609 3.305 6.852 7.037 9.055 11.443 3.611 7.159 3.244 14.135-1.285 20.744-4.344 6.241-10.34 10.402-17.072 13.706ZM.44 210.005c7.71 20.559 17.929 39.773 30.106 58.008 43.139 64.556 102.003 108.001 175.921 131.314.551.183 1.04.367 1.592.673-3.06-.123-6.059-.796-9.057-1.468-46.566-10.587-87.991-31.33-123.482-63.516-32.43-29.371-55.07-65.229-69.695-106.349-2.142-6.057-4.161-12.115-5.813-18.295-.061-.428.122-.49.428-.367Z" fill="#fff"/><path fill-rule="evenodd" clip-rule="evenodd" d="M327.746 195.502H226.339c-33.772 0-67.605 0-101.377.122-1.223 0-2.447 0-3.61.185-4.039.611-5.935 2.814-5.935 6.852 0 17.929 0 35.796.061 53.665 0 8.75 1.407 17.316 3.671 25.761.245 1.04.795 1.774 1.652 2.386 38.917 29.187 81.75 50.604 128.5 64.188.979.245 1.836.367 2.814.184 7.527-1.407 14.931-3.243 22.151-5.691.768-.267 1.537-.532 2.307-.796 6.098-2.095 12.201-4.191 17.58-7.831 13.4-9.179 23.68-21.295 31.635-35.368.674-1.224 1.408-1.653 2.815-1.653 4.312.092 8.589.08 12.884.07 1.434-.004 2.87-.008 4.31-.008 1.081-.019 2.157-.01 3.229-.001 2.569.02 5.116.04 7.664-.306 22.64-3.181 37.386-24.536 32.247-46.809-3.611-15.543-17.073-27.476-32.982-29.127-3.746-.417-7.521-.351-11.285-.287a187.32 187.32 0 0 1-5.297.042c-1.347 0-1.653-.367-1.653-1.713.041-3.752.027-7.474.014-11.207-.007-1.87-.014-3.742-.014-5.621 0-3.059-1.285-5.017-4.161-6.18-1.897-.735-3.855-.857-5.813-.857Zm9.914 41.487v11.993c.488 9.485-.797 20.255-4.468 30.779-.428 1.285 0 1.469 1.163 1.469 2.518-.026 5.025-.019 7.53-.012 3.338.01 6.675.021 10.031-.049 11.626-.245 21.356-8.995 22.396-19.949 1.163-12.176-6.18-22.578-17.99-25.026-3.917-.817-7.916-.707-11.905-.598-1.994.054-3.985.108-5.962.047-.874-.051-.841.502-.808 1.044.006.103.013.205.013.302Z" fill="#F9AF3F"/><path d="M614.634 31.593c12.379-.177 24.582 0 36.962-.353 3.536 0 3.713 1.591 3.713 4.42v111.416c2.3-1.061 3.007-3.007 3.891-4.422 24.228-35.722 48.456-71.446 72.508-107.347 1.945-2.83 3.891-4.244 7.428-4.067 11.672.353 23.521.176 35.37.176.177 2.83-1.769 4.245-2.83 5.836-19.807 29.18-39.437 58.538-59.422 87.541-2.652 3.891-3.005 6.543-.176 10.611 21.93 33.424 43.682 67.026 65.612 100.627 1.06 1.592 1.945 3.007 3.36 5.483h-29.004c-6.19 0-13.618 1.768-18.393-.885-4.598-2.476-6.72-9.727-9.903-14.854-12.91-20.692-25.819-41.384-38.907-62.076-.177-.353-.53-.529-1.237-1.237-7.252 9.726-14.149 19.453-21.754 28.827-4.951 6.012-7.25 12.202-6.72 19.983.708 8.666 0 17.332.177 25.997.178 3.36-.884 4.422-4.244 4.422-12.203-.177-24.228 0-36.431 0V31.593ZM1714.11 139.118c-4.07 12.733-7.6 24.052-11.14 35.37-6.55 20.868-13.26 41.559-19.63 62.427-1.07 3.361-2.31 4.598-6.01 4.598-7.79-.353-15.39-.176-23.17 0-2.83 0-4.07-.53-4.96-3.536-14.85-53.762-29.88-107.348-45.09-161.11-1.07-3.714.17-3.89 3.18-3.89 10.09.176 20.16.353 30.42-.178 5.31-.353 6.72 1.769 7.78 6.367 7.25 32.717 14.68 65.434 22.11 98.328.18 1.061.53 1.945 1.24 4.421 5.3-18.746 10.25-35.9 15.2-53.054 3.72-12.911 7.43-25.821 10.97-38.554 1.06-3.713 2.47-7.25 4.95-10.434 7.96-10.08 23.35-9.02 29.53 2.3 5.66 10.61 7.61 22.636 10.97 33.955 6.01 20.16 11.67 40.497 17.51 60.836.35 1.415.35 3.006 1.94 4.067 7.79-34.486 15.74-68.971 23.35-103.457.88-3.714 2.29-4.598 5.83-4.598 10.26.177 20.52.177 30.95 0 3.54 0 4.78.177 3.54 4.421-15.03 53.232-29.72 106.64-44.56 160.049-.72 2.83-1.78 4.245-5.14 4.067-7.96-.353-15.73-.353-23.69 0-3.36.178-4.42-1.237-5.31-4.067-10.08-32.186-20.16-64.373-30.77-98.328Zm-376.33 18.923c13.43-20.161 27.05-40.146 40.49-60.306 3.36-4.952 6.72-10.08 10.08-15.032 1.24-1.769 2.48-2.83 4.77-2.83 13.09.177 26 0 39.08 0 .72 2.3-1.05 3.183-1.94 4.421-16.08 22.107-32.18 44.213-48.46 66.319-2.65 3.537-2.82 5.659 0 9.373 19.46 25.112 38.56 50.579 57.66 75.868 1.24 1.592 2.3 3.184 4.07 5.482h-44.56c-2.31 0-2.83-2.122-3.9-3.536-12.73-16.978-25.28-33.955-37.84-50.756-1.24-1.591-2.48-3.184-3.89-5.129-5.49 7.781-10.62 15.21-15.93 22.637-1.22 1.769-.87 3.537-.87 5.305 0 9.02-.18 18.039 0 27.059.17 3.536-.72 4.775-4.42 4.598-9.73-.354-19.46-.354-29.18 0-3.9.177-4.78-1.062-4.78-4.952.17-43.859 0-87.895 0-131.753 0-26.704 0-53.232-.18-79.936 0-3.89.71-5.482 5.13-5.306 8.84.354 17.68.354 26.53 0 5.31-.353 7.07.885 6.9 6.72-.35 42.268-.18 84.534-.18 126.802v4.775c.7 0 1.05.177 1.42.177Zm-374.045-.531c0-26.35.177-52.524-.178-78.874 0-4.775 1.416-6.013 5.837-5.66a147.45 147.45 0 0 0 17.689 0c3.708-.177 6.186.708 7.425 4.598 1.239 3.89 3.531 7.251 4.77 11.142 1.242 3.714 2.832 4.244 6.372 2.476 11.49-5.66 23.52-10.434 34.84-16.447 8.84-4.775 17.5-4.068 25.81-.354 18.75 8.135 28.3 23.167 30.6 43.152 1.06 9.903.71 19.806.71 29.71 0 29.534 0 59.245.18 88.778 0 4.422-1.24 5.483-5.49 5.306-9.01-.353-18.04-.353-27.05 0-4.61.177-6.2-.708-6.02-5.835.36-32.895.18-65.789.18-98.86 0-4.067-.18-8.135-.88-12.025-2.31-12.911-13.97-19.277-26.18-14.325-8.49 3.536-16.8 7.251-25.46 10.434-3.72 1.415-4.78 3.36-4.78 7.251.17 35.9 0 71.801.17 107.525 0 4.598-1.23 5.835-5.655 5.658a345.703 345.703 0 0 0-27.054 0c-4.421.177-5.836-.884-5.836-5.658.177-25.821 0-51.818 0-77.992Zm1124.585-2.476c0 27.059-.17 54.116.18 81.174 0 4.421-1.24 5.483-5.49 5.305a436.746 436.746 0 0 0-30.41 0c-4.25.178-5.49-1.061-5.49-5.305.18-54.115 0-108.055.18-162.171 0-4.598-.88-6.19-5.84-6.013-15.21.354-30.59 0-45.8.177-3.71 0-4.6-1.061-4.6-4.598.18-9.196.18-18.392 0-27.589 0-3.183.53-4.42 4.25-4.42 48.63.176 97.09.176 145.72 0 2.83 0 3.71.707 3.71 3.713-.17 9.55-.17 19.1 0 28.65 0 3.36-.88 4.42-4.24 4.244-15.56-.177-31.3.177-46.86-.177-4.61-.177-5.31 1.415-5.31 5.483v81.527Zm-170.31-19.099c0-33.071.18-66.142-.18-99.39 0-4.421 1.24-5.482 5.49-5.305 10.44.354 21.04.177 31.48 0 3.36 0 4.24.884 4.24 4.244-.17 67.203-.17 134.229 0 201.431 0 3.714-1.06 4.598-4.59 4.422-10.44-.177-21.05-.353-31.48 0-4.07.176-5.14-.884-5.14-5.129.36-33.248.18-66.849.18-100.273Z" fill="#fff"/><path fill-rule="evenodd" clip-rule="evenodd" d="M1212.44 209.974c2.25-1.203 4.54-2.42 6.84-3.653-.21 3.647-.39 7.215-.57 10.717-.41 8.219-.81 16.081-1.55 23.769-1.06 10.08-6.55 15.385-16.45 17.331-7.96 1.414-15.73.884-23.52-1.238-5.31-1.415-9.19-4.421-9.73-10.435-.35-3.154-2.08-3.008-4.18-2.834l-.06.005c-2.3.133-4.6.276-6.9.42-6.9.431-13.79.862-20.69.995-4.42.176-4.6 1.945-4.24 5.483 1.95 17.154 11.5 28.648 27.41 34.662 19.63 7.427 39.97 8.135 60.13 2.653 22.1-6.013 35.37-22.461 36.79-45.451.52-9.549.52-19.099.52-28.65.09-22.725.09-45.494.09-68.286 0-22.791 0-45.604.09-68.418 0-4.421-.89-5.66-5.48-5.129-5.32.71-10.56.944-15.83 1.18-2.61.118-5.23.236-7.87.412-9.93.728-19.86.66-29.79.59-9.34-.064-18.69-.13-28.04.47-23.52 1.416-38.73 13.795-43.86 36.963-5.31 24.759-5.66 49.694-.7 74.453 5.3 26.881 22.63 41.206 48.81 42.267 3.18.177 6.01-.53 8.84-2.122 9.72-5.374 19.58-10.627 29.94-16.154Zm5.75-59.36c.01-3.066.03-6.131.03-9.196 0-2.386-.01-4.77-.02-7.158-.03-7.173-.06-14.371.2-21.67 0-3.182-.89-4.067-4.07-4.067-5.05.202-10.11.174-15.16.144-3.78-.021-7.58-.043-11.37.032-13.26.178-21.21 6.191-24.58 18.747-3.53 13.087-4.24 26.528-1.94 39.968 3 17.331 19.28 25.113 34.84 16.977 2.06-1.061 4.12-2.142 6.18-3.223 4.13-2.161 8.26-4.322 12.38-6.326 2.48-1.238 3.54-2.83 3.54-5.836-.11-6.131-.07-12.262-.03-18.392Zm-285.58 47.041c2.83-12.91 3.361-26.174 3.891-39.968-.177-11.142-.708-22.99-3.006-34.486-5.306-28.119-20.692-44.566-47.042-50.225-10.611-2.299-21.576-2.122-32.364-1.415-29.003 2.122-48.457 18.039-55.177 46.158-6.543 27.235-6.013 54.646.353 81.881 5.483 22.814 19.277 38.2 42.622 43.505 13.971 3.184 27.941 3.36 42.09 1.061 27.057-4.244 42.62-20.338 48.633-46.511Zm-36.608-11.142c2.3-9.549 2.3-19.276 2.123-29.003.177-8.135.177-16.27-.885-24.228-1.238-8.843-3.713-16.978-11.318-22.461-17.861-12.732-44.566-4.42-49.871 16.801-5.129 20.338-4.953 41.206.707 61.544 4.244 15.386 15.385 22.46 30.948 21.753 15.209-.885 24.759-8.843 28.296-24.406Zm693.068 11.496c3.01-13.264 3.55-26.705 3.9-40.853-.18-10.787-.53-22.283-2.83-33.601-5.31-28.12-20.34-44.743-46.87-50.402-10.97-2.476-22.28-2.476-33.43-1.415-29.18 2.653-47.39 18.039-54.29 46.512-6.55 27.234-6.18 54.646.35 81.881 5.66 23.344 20.17 38.553 44.39 43.505 12.73 2.475 25.48 2.829 38.38.884 27.95-4.067 44.04-19.1 50.4-46.511Zm-36.43-11.672c2.31-9.551 2.31-19.277 2.12-29.003.19-7.782.19-15.74-.88-23.521-1.24-9.02-3.71-17.332-11.49-22.992-17.86-12.909-44.75-4.42-49.87 16.801-5.13 20.338-4.96 41.206.7 61.544 4.42 15.21 15.56 22.46 31.13 21.575 15.39-.883 24.75-9.019 28.29-24.404Z" fill="#fff"/><path d="M2144.61 392.403h-5.26c-9.02 0-9.02 0-11.65-8.454-1.12-.564-1.69.375-2.25 1.128-8.46 9.018-23.49 11.647-34.38 5.823-6.4-3.382-9.96-9.018-10.72-15.782-1.88-17.097-.37-34.382-.75-51.48 0-2.066.95-2.818 2.82-2.63h.56c15.97-1.315 15.97-1.315 15.97 14.467 0 9.582-.18 19.164 0 28.746.19 9.207 3.77 13.715 10.71 14.279 7.9.564 13.53-3.757 15.03-12.4 2.26-12.964.94-26.115.94-39.267 0-4.885 1.32-6.577 6.2-6.013 4.32.564 8.65.188 12.78.375v71.208Zm-511.79-40.394c7.7-9.582 16.16-18.037 23.86-27.055 2.82-3.195 5.64-4.885 9.96-4.51 4.88.376 9.58 0 15.96 0-6.38 7.14-11.83 13.152-17.27 19.352-3.58 3.946-9.41 7.892-9.59 12.025-.19 4.134 5.45 8.455 8.46 12.776 6.57 9.018 13.15 17.849 20.48 27.619h-21.04c-2.26 0-2.82-1.879-3.77-3.195-4.88-6.764-9.58-13.715-14.65-20.478-1.32-1.692-2.06-5.637-4.51-4.134-3.01 1.691-7.33 3.194-7.33 8.267 0 5.26-.19 10.521 0 15.782.19 3.006-.56 3.945-3.76 3.945-15.78.377-15.78.564-15.78-14.842 0-26.492.19-53.171-.18-79.662 0-4.321.93-5.637 5.44-5.637 14.28.188 14.28 0 14.28 14.091-.19 15.219.56 30.25-.56 45.656Zm157.63-20.856c8.46-10.896 17.85-12.963 28.56-11.648 10.71 1.314 18.22 7.891 19.35 18.6 1.88 17.097.38 34.383.75 51.48 0 2.066-.75 2.819-2.82 2.63h-1.12c-15.6.751-15.6.751-15.6-15.03 0-9.395.19-18.788 0-28.183-.18-9.393-3.56-13.903-10.33-14.467-8.65-.564-13.9 3.382-15.4 12.401-2.26 13.151-.95 26.491-.95 39.643 0 4.321-.94 6.012-5.45 5.448-4.51-.563-10.7 2.067-13.52-1.127-2.25-2.63-.56-8.642-.75-13.152 0-17.284.19-34.758-.19-52.044 0-4.696 1.51-5.447 5.82-5.636 7.14 0 12.22.751 11.65 11.085Zm248.01 1.879c5.82-8.831 12.78-14.091 22.92-13.903 3.75.187 6.57.563 5.07 5.448v.564c-.19 3.757.56 8.078-1.13 10.898-1.87 3.381-6.76.751-10.15 1.502-9.76 2.067-14.84 7.704-15.02 17.849a905.517 905.517 0 0 0 0 32.128c0 3.382-.56 4.697-4.33 4.697-15.21.188-15.21.188-15.21-14.843 0-17.098.18-34.382-.19-51.479 0-4.885 1.5-5.824 5.83-5.637 8.83.564 8.83.188 12.21 12.776Z" fill="#fff"/><path fill-rule="evenodd" clip-rule="evenodd" d="M1864.88 392.461c5.9.241 11.7.478 12.56-8.512.55.453 1.01.774 1.39 1.05.42.295.77.537 1.06.828 14.84 13.716 35.88 9.395 42.65-9.581 4.88-13.528 4.88-27.619-.57-41.147-3.94-9.77-11.08-15.406-21.8-15.97-8.63-.375-15.78 2.63-21.41 10.521v-22.545c0-7.856 0-11.755-1.95-13.598-1.96-1.858-5.91-1.623-13.84-1.245-3 .188-3.56 1.127-3.56 3.758.18 30.812.18 61.625 0 92.438 0 3.194.94 3.945 3.94 3.945.51.015 1.02.037 1.53.058Zm38.68-22.792c2.06-4.321 2.25-9.018 2.25-13.715 0-4.696-.19-9.206-2.44-13.715-2.44-5.449-6.58-7.892-12.59-7.515-5.83.564-9.58 3.569-10.89 9.018-2.26 8.267-2.08 16.534.18 24.8 1.69 5.825 5.64 8.643 11.65 9.018 6.01.376 9.58-2.818 11.84-7.891Zm-447.14-34.997c-.02 3.522-.03 7.047-.03 10.572 0 2.101 0 4.208-.01 6.321-.03 8.469-.06 17.01.4 25.432 0 1.413-.2 2.999-.39 4.604-.46 3.941-.95 7.993 1.32 9.863 1.97 1.598 5.46 1.346 9.07 1.086 1.9-.137 3.83-.277 5.58-.147 3.38.188 4.14-.939 4.14-4.321-.09-4.134-.09-8.222-.09-12.308s0-8.172-.1-12.304c0-3.57.75-4.885 4.51-4.698 4.14.188 8.46 0 12.77-.564 16.54-1.879 26.68-12.775 27.25-28.934.56-17.096-7.51-27.242-25.18-30.061-6.96-1.027-13.99-.875-21-.724-4.53.097-9.06.195-13.57-.027-3.75-.188-4.88.751-4.88 4.697.28 10.425.25 20.956.21 31.513Zm19.65-6.961c.03.491.06 1.109.06 1.939.42 1.356.17 3.09-.09 4.885-.42 2.933-.86 6.026 1.59 7.891 3.19 2.255 9.02.564 13.53-.751 7.14-2.067 10.89-8.83 9.39-16.534-1.69-8.642-8.83-12.588-21.6-10.145-3.93.736-3.45 3.636-2.96 6.605.26 1.578.52 3.176.14 4.48-.12.45-.1.899-.06 1.63Zm475.58 64.692c12.02 2.818 22.93.939 31.37-10.146 4.63 10.718 4.71 10.713 13.82 9.994l.47-.036c2.63 0 3.19-.94 3.19-3.382 0-4.049.01-8.086.03-12.115.03-12.047.06-24.015-.22-35.983-.37-9.77-6.01-17.098-15.4-19.916-13.15-3.945-25.93-2.442-38.33 3.007-.24.101-.5.191-.74.28-1.16.406-2.32.809-1.7 2.351.4.897.78 1.828 1.17 2.763 1.22 2.974 2.46 5.989 4.46 8.133 1.42 1.416 3.36.363 5.29-.683.89-.48 1.77-.959 2.6-1.195 5.08-1.504 10.34-2.631 15.6-1.879 5.45.751 8.83 5.448 8.07 11.085-.54 4.034-3.17 3.536-5.55 3.082-.84-.159-1.65-.313-2.33-.264l-1.31.083c-8.39.526-16.75 1.051-24.43 4.802-7.9 4.133-11.46 11.273-10.53 21.606.94 9.582 5.83 16.346 14.47 18.413Zm29.68-25.928c.95-7.139.76-7.516-7.7-7.139-3.38 0-7.51.187-11.46 2.441-4.51 2.631-5.82 6.765-4.88 11.462 1.13 4.885 5.07 6.012 9.39 6.012 8.08 0 13.72-4.885 14.65-12.776Zm-387.45 11.432c.02-1.397.04-2.822.04-4.292-2.25.939-4.12 1.691-5.82 2.067-7.33 2.442-15.03 4.134-22.92 2.631-6.58-1.128-11.09-6.013-12.4-12.401-.75-3.569 0-4.885 3.94-4.697 6.65.125 13.28.083 19.92.041 3.32-.02 6.64-.041 9.95-.041 6.14 0 9.24 0 10.69-1.546 1.49-1.581 1.25-4.774.78-11.23-1.32-15.407-9.21-25.364-22.55-28.559-21.98-5.072-39.27 6.389-42.65 28.559a56.375 56.375 0 0 0 0 15.782c1.69 11.836 6.96 21.231 18.42 25.928 13.14 5.448 26.3 4.321 39.45-.188 2.07-.564 3.38-1.691 3.19-4.134-.12-2.603-.08-5.207-.04-7.92Zm-30.55-29.886c1.04.021 2.09.042 3.17.042 1.01 0 2.03-.022 3.03-.042 1.96-.042 3.87-.082 5.61.042 4.7.564 4.88-1.879 3.94-5.261-1.5-6.199-6.38-9.957-12.77-9.957-6.58 0-10.9 3.382-12.97 9.769-1.31 3.759-1.13 6.013 3.76 5.449 2.12-.124 4.16-.084 6.23-.042Zm140.88 44.382c12.21 3.195 23.3.939 31.75-9.957 4.71 10.709 4.71 10.709 14.66 10.145 2.07-.188 3-.564 3-3.006-.06-5.567-.08-11.112-.1-16.644-.04-11.085-.08-22.115-.46-33.145-.18-9.77-6.2-16.158-15.59-18.788-12.96-3.757-25.56-2.067-37.76 3.006-2.82 1.127-2.64 2.255-1.51 4.697 2.16 4.591 3.19 6.892 4.92 7.697 1.74.808 4.18.103 9.17-1.309 4.7-1.315 9.59-2.067 14.47-1.315 5.08.752 7.9 5.26 7.51 10.897-.41 4.463-3.11 3.853-5.47 3.32-.82-.186-1.6-.362-2.23-.314-.78.05-1.56.097-2.34.144-8.08.484-16.23.973-23.78 4.742-7.51 3.757-11.08 11.084-10.33 20.478.75 10.334 5.45 17.098 14.09 19.352Zm30.06-26.303c.39-5.073 0-8.831-5.82-6.764-4.89 0-8.83.188-12.77 2.066-4.7 2.443-6.4 6.577-5.45 11.649.94 5.261 5.26 6.2 9.77 6.2 8.07 0 13.53-5.261 14.27-13.151Z" fill="#fff"/></g><defs><clipPath id="a"><path fill="#fff" d="M0 0h2165.85v400H0z"/></clipPath></defs></svg>